<?xml version="1.0" encoding="UTF-8"?>
<svg width="25px" height="26px" viewBox="0 0 46 49" version="1.1" xmlns="http://www.w3.org/2000/svg" xmlns:xlink="http://www.w3.org/1999/xlink">
	<!-- Generator: Sketch 64 (93537) - https://sketch.com -->
	<title>Shape</title>
	<desc>Created with Sketch.</desc>
	<g id="Page-1" stroke="none" stroke-width="1" fill="none" fill-rule="evenodd">
		<path d="M44.3,49 L29,49 C28.2,49 27.5,48.3 27.5,47.5 L27.5,35.2 C27.5,32.6 25.5,30.6 22.9,30.6 C20.3,30.6 18.3,32.6 18.3,35.2 L18.3,47.5 C18.3,48.3 17.6,49 16.8,49 L1.5,49 C0.7,49 0,48.3 0,47.5 L0,24 C0,23.6 0.2,23.2 0.4,22.9 L21.9,1.4 C22.5,0.8 23.4,0.8 24,1.4 L45.5,22.9 C45.9,23.3 46.1,24 45.8,24.5 C45.8,24.6 45.7,24.6 45.7,24.7 L45.7,47.5 C45.8,48.3 45.1,49 44.3,49 Z M30.5,46 L42.8,46 L42.8,24.4 L23,4.6 L3,24.6 L3,46 L15.3,46 L15.3,35.2 C15.3,30.9 18.6,27.6 22.9,27.6 C27.2,27.6 30.5,30.9 30.5,35.2 L30.5,46 Z" id="Shape" fill="#000000" fill-rule="nonzero"></path>
	</g>
</svg>