<?xml version="1.0" encoding="UTF-8"?>
<svg width="512px" height="456px" viewBox="0 0 512 456" version="1.1" xmlns="http://www.w3.org/2000/svg" xmlns:xlink="http://www.w3.org/1999/xlink">
    <title>Path</title>
    <g id="Page-1" stroke="none" stroke-width="1" fill="none" fill-rule="evenodd">
        <path d="M471.382812,44.578125 C444.878906,15.832031 408.511719,0 368.972656,0 C339.417969,0 312.351562,9.34375 288.523438,27.769531 C276.5,37.070312 265.605469,48.449219 256,61.730469 C246.398438,48.453125 235.5,37.070312 223.472656,27.769531 C199.648438,9.34375 172.582031,0 143.027344,0 C103.488281,0 67.117188,15.832031 40.613281,44.578125 C14.425781,72.988281 2.84217094e-14,111.800781 2.84217094e-14,153.871094 C2.84217094e-14,197.171875 16.136719,236.808594 50.78125,278.613281 C81.773438,316.007812 126.316406,353.96875 177.898438,397.925781 C195.511719,412.9375 215.476562,429.953125 236.207031,448.078125 C241.683594,452.875 248.710938,455.515625 256,455.515625 C263.285156,455.515625 270.316406,452.875 275.785156,448.085938 C296.515625,429.957031 316.492188,412.933594 334.113281,397.914062 C385.6875,353.964844 430.230469,316.007812 461.222656,278.609375 C495.867188,236.808594 512,197.171875 512,153.867188 C512,111.800781 497.574219,72.988281 471.382812,44.578125 Z" id="Path" fill="#000000" fill-rule="nonzero"></path>
    </g>
</svg>
