<?xml version="1.0" encoding="UTF-8"?>
<svg width="23px" height="20px" viewBox="0 0 48 42" version="1.1" xmlns="http://www.w3.org/2000/svg" xmlns:xlink="http://www.w3.org/1999/xlink">
	<!-- Generator: Sketch 64 (93537) - https://sketch.com -->
	<title>Shape</title>
	<desc>Created with Sketch.</desc>
	<g id="Page-1" stroke="none" stroke-width="1" fill="none" fill-rule="evenodd">
		<path d="M34.3,0.5 C27.2,0.5 24,5.8 24,5.8 C24,5.8 20.8,0.5 13.7,0.5 C6.4,0.5 0.5,6.9 0.5,14.8 C0.5,22.7 6.6,27.2 12.7,32.6 C21.9,40.8 22.5,41.5 24,41.5 C25.5,41.5 26.1,40.8 35.3,32.6 C41.5,27.1 47.5,22.6 47.5,14.8 C47.5,6.9 41.6,0.5 34.3,0.5 Z M33.3,30.3 C27.9,35.1 25,37.8 24,38.4 C23,37.7 19.4,34.5 14.7,30.3 C9.2,25.4 3.5,21.3 3.5,14.7 C3.5,8.5 8.1,3.4 13.7,3.4 C17.8,3.4 20,5.4 21.6,7.6 C25.2,12.7 22.8,12.7 26.4,7.6 C28,5.4 30.2,3.4 34.3,3.4 C39.9,3.4 44.5,8.5 44.5,14.7 C44.5,21.4 38.8,25.5 33.3,30.3 Z" id="Shape" fill="#000000"></path>
	</g>
</svg>