<?xml version="1.0" encoding="UTF-8"?>
<svg width="23px" height="23px" viewBox="0 0 48 48" version="1.1" xmlns="http://www.w3.org/2000/svg" xmlns:xlink="http://www.w3.org/1999/xlink">
	<!-- Generator: Sketch 64 (93537) - https://sketch.com -->
	<title>Shape</title>
	<desc>Created with Sketch.</desc>
	<g id="Page-1" stroke="none" stroke-width="1" fill="none" fill-rule="evenodd">
		<path d="M24,0.5 C37,0.5 47.5,11 47.5,24 C47.5,37 37,47.5 24,47.5 C11,47.5 0.5,37 0.5,24 C0.5,11 11,0.5 24,0.5 Z M24,44.5 C35.3,44.5 44.5,35.3 44.5,24 C44.5,12.7 35.3,3.5 24,3.5 C12.7,3.5 3.5,12.7 3.5,24 C3.5,35.3 12.7,44.5 24,44.5 Z M19.6,20.8 C19.9,20.3 20.3,19.9 20.8,19.6 L35.6,11.5 C35.9,11.4 36.2,11.4 36.4,11.6 C36.6,11.8 36.7,12.1 36.5,12.4 L28.4,27.2 C28.1,27.7 27.7,28.1 27.2,28.4 L12.4,36.5 C12.1,36.6 11.8,36.6 11.6,36.4 C11.4,36.2 11.3,35.9 11.5,35.6 L19.6,20.8 Z M25.8,25.8 L30.1,18 L22.3,22.3 L25.8,25.8 Z" id="Shape" fill="#000000"></path>
	</g>
</svg>