<svg xmlns="http://www.w3.org/2000/svg" width="920" height="512" viewBox="0 0 920 512">
  <path d="M255,300 C307.009,300 356.006,320.667 392.966,358.195 C429.745,395.539 450,444.833 450,497 C450,505.284 443.284,512 435,512 L435,512 L15,512 C6.716,512 0,505.284 0,497 C0,444.833 20.255,395.539 57.034,358.195 C93.994,320.667 142.992,300 195,300 L195,300 Z M892.686487,142.691183 C898.935449,136.436272 909.066551,136.436272 915.313888,142.691183 C921.562037,148.946094 921.562037,159.087346 915.313888,165.34307 L915.313888,165.34307 L644.642268,436.310037 C638.394931,442.564134 628.260579,442.562508 622.014867,436.310037 L622.014867,436.310037 L508.686112,322.858643 C502.437963,316.602919 502.437963,306.461667 508.686112,300.206756 C514.935074,293.951032 525.066176,293.951032 531.313513,300.206756 L531.313513,300.206756 L633.327349,402.3318 Z M225,0 C299.439,0 360,60.561 360,135 C360,209.439 299.439,270 225,270 C150.561,270 90,209.439 90,135 C90,60.561 150.561,0 225,0 Z"/>
</svg>
