<?xml version="1.0" encoding="UTF-8"?>
<svg width="12px" height="12px" viewBox="0 0 12 12" version="1.1" xmlns="http://www.w3.org/2000/svg" xmlns:xlink="http://www.w3.org/1999/xlink">
	<title>IGTV</title>
	<g id="Page-1" stroke="none" stroke-width="1" fill="none" fill-rule="evenodd">
		<path d="M10.25,2.5 C9.7,1.975 9.05,1.625 7.65,1.625 L6.825,1.625 L7.625,0.75 C7.775,0.6 7.75,0.35 7.6,0.225 C7.45,0.075 7.2,0.1 7.075,0.25 L6,1.4 L4.925,0.25 C4.775,0.1 4.55,0.1 4.4,0.225 C4.25,0.375 4.225,0.6 4.375,0.75 L5.175,1.625 L4.35,1.625 C2.95,1.625 2.3,1.975 1.75,2.5 C1.225,3.05 0.875,3.7 0.875,5.1 L0.875,8.375 C0.875,9.8 1.225,10.45 1.75,11 C2.3,11.525 2.95,11.875 4.35,11.875 L7.625,11.875 C9.05,11.875 9.7,11.525 10.25,11 C10.775,10.45 11.125,9.8 11.125,8.4 L11.125,5.125 C11.125,3.7 10.775,3.05 10.25,2.5 Z M10.375,8.4 C10.375,9.7 10.05,10.15 9.725,10.475 C9.375,10.8 8.925,11.125 7.625,11.125 L4.35,11.125 C3.05,11.125 2.6,10.8 2.275,10.475 C1.95,10.125 1.625,9.675 1.625,8.375 L1.625,5.125 C1.625,3.825 1.95,3.375 2.275,3.05 C2.625,2.725 3.075,2.4 4.375,2.4 L7.65,2.4 C8.95,2.4 9.4,2.725 9.725,3.05 C10.05,3.4 10.375,3.85 10.375,5.15 L10.375,8.4 L10.375,8.4 Z M8.65,6.25 L6.375,6.95 L6.375,6.025 C6.375,5.9 6.325,5.8 6.225,5.725 C6.125,5.65 6,5.625 5.9,5.675 L3.125,6.525 C2.925,6.575 2.825,6.8 2.875,7 C2.925,7.2 3.15,7.3 3.35,7.25 L5.625,6.55 L5.625,7.475 C5.625,7.6 5.675,7.7 5.775,7.775 C5.85,7.825 5.925,7.85 6,7.85 C6.025,7.85 6.075,7.85 6.1,7.825 L8.875,6.975 C9.075,6.925 9.175,6.7 9.125,6.5 C9.075,6.3 8.85,6.2 8.65,6.25 Z" id="IGTV" fill="#8E8E8E" fill-rule="nonzero"></path>
	</g>
</svg>