<?xml version="1.0" encoding="UTF-8"?>
<svg width="12px" height="12px" viewBox="0 0 12 12" version="1.1" xmlns="http://www.w3.org/2000/svg" xmlns:xlink="http://www.w3.org/1999/xlink">
	<title>Combined Shape</title>
	<g id="Page-1" stroke="none" stroke-width="1" fill="none" fill-rule="evenodd">
		<path d="M11,0.125 C11.2,0.125 11.375,0.3 11.375,0.5 L11.375,0.5 L11.375,11 C11.375,11.2 11.2,11.375 11,11.375 L11,11.375 L0.5,11.375 C0.3,11.375 0.125,11.2 0.125,11 L0.125,11 L0.125,0.5 C0.125,0.3 0.3,0.125 0.5,0.125 L0.5,0.125 Z M3.625,7.875 L0.875,7.875 L0.875,10.625 L3.625,10.625 L3.625,7.875 Z M7.125,7.875 L4.375,7.875 L4.375,10.625 L7.125,10.625 L7.125,7.875 Z M10.625,7.875 L7.875,7.875 L7.875,10.625 L10.625,10.625 L10.625,7.875 Z M3.625,4.375 L0.875,4.375 L0.875,7.125 L3.625,7.125 L3.625,4.375 Z M7.125,4.375 L4.375,4.375 L4.375,7.125 L7.125,7.125 L7.125,4.375 Z M10.625,4.375 L7.875,4.375 L7.875,7.125 L10.625,7.125 L10.625,4.375 Z M3.625,0.875 L0.875,0.875 L0.875,3.625 L3.625,3.625 L3.625,0.875 Z M7.125,0.875 L4.375,0.875 L4.375,3.625 L7.125,3.625 L7.125,0.875 Z M10.625,0.875 L7.875,0.875 L7.875,3.625 L10.625,3.625 L10.625,0.875 Z" id="publi" fill="#262626" fill-rule="nonzero"></path>
	</g>
</svg>