<?xml version="1.0" encoding="UTF-8"?>
<svg width="512px" height="512px" viewBox="0 0 512 512" version="1.1" xmlns="http://www.w3.org/2000/svg" xmlns:xlink="http://www.w3.org/1999/xlink">
    <title>Shape</title>
    <g id="Page-1" stroke="none" stroke-width="1" fill="none" fill-rule="evenodd">
        <path d="M436.896,74.869 C337.056,-24.95 174.688,-24.95 74.848,74.869 C-24.949,174.688 -24.949,337.098 74.848,436.917 C124.768,486.816 190.325,511.754 255.883,511.754 C321.441,511.754 386.976,486.815 436.896,436.917 C536.715,337.099 536.715,174.688 436.896,74.869 Z M361.461,331.317 C369.802,339.658 369.802,353.141 361.461,361.482 C357.301,365.642 351.84,367.733 346.378,367.733 C340.917,367.733 335.455,365.642 331.295,361.482 L255.882,286.047 L180.49,361.46 C176.309,365.62 170.847,367.711 165.407,367.711 C159.946,367.711 154.484,365.62 150.324,361.46 C141.983,353.119 141.983,339.615 150.324,331.295 L225.716,255.882 L150.303,180.469 C141.962,172.128 141.962,158.624 150.303,150.304 C158.623,141.963 172.127,141.963 180.468,150.304 L255.881,225.717 L331.294,150.304 C339.635,141.963 353.118,141.963 361.459,150.304 C369.8,158.624 369.8,172.128 361.459,180.469 L286.046,255.882 L361.461,331.317 Z" id="Shape" fill="#000000" fill-rule="nonzero"></path>
    </g>
</svg>
